<svg width="132" height="44" viewBox="0 0 132 44" fill="none" xmlns="http://www.w3.org/2000/svg">
<g clip-path="url(#clip0_32_2)">
<rect width="33" height="44" fill="#8E2841"/>
<path d="M16.4 30.2C15.0533 30.2 13.8733 29.92 12.86 29.36C11.86 28.8 11.08 27.98 10.52 26.9C9.96 25.82 9.68 24.52 9.68 23C9.68 21.48 9.96 20.18 10.52 19.1C11.08 18.02 11.86 17.2 12.86 16.64C13.8733 16.08 15.0533 15.8 16.4 15.8C18.2133 15.8 19.64 16.2533 20.68 17.16C21.72 18.0667 22.3867 19.2733 22.68 20.78H18.96C18.6933 20.18 18.36 19.7467 17.96 19.48C17.5733 19.2 17.0533 19.06 16.4 19.06C15.7333 19.06 15.1667 19.22 14.7 19.54C14.2467 19.86 13.9 20.3133 13.66 20.9C13.42 21.4867 13.3 22.1867 13.3 23C13.3 23.8133 13.42 24.5133 13.66 25.1C13.9 25.6867 14.2467 26.14 14.7 26.46C15.1667 26.78 15.7333 26.94 16.4 26.94C17.0533 26.94 17.5733 26.8067 17.96 26.54C18.36 26.26 18.6933 25.82 18.96 25.22H22.68C22.3867 26.7267 21.72 27.9333 20.68 28.84C19.64 29.7467 18.2133 30.2 16.4 30.2Z" fill="white"/>
<rect x="10" y="34" width="13" height="4" fill="white"/>
<path d="M44.242 29V16.4H49.138C50.314 16.4 51.334 16.652 52.198 17.156C53.074 17.648 53.746 18.368 54.214 19.316C54.682 20.264 54.916 21.392 54.916 22.7C54.916 24.008 54.682 25.136 54.214 26.084C53.746 27.032 53.074 27.758 52.198 28.262C51.334 28.754 50.314 29 49.138 29H44.242ZM49.048 26.498C49.624 26.498 50.14 26.36 50.596 26.084C51.064 25.796 51.436 25.364 51.712 24.788C52 24.212 52.144 23.516 52.144 22.7C52.144 21.884 52 21.188 51.712 20.612C51.436 20.036 51.064 19.61 50.596 19.334C50.14 19.046 49.624 18.902 49.048 18.902H47.014V26.498H49.048ZM56.6831 29V19.442H58.8971L59.1671 20.504H59.2571C59.5091 20.132 59.8271 19.862 60.2111 19.694C60.6071 19.526 61.0391 19.442 61.5071 19.442H62.6951V21.926H61.6871C61.1831 21.926 60.7451 22.022 60.3731 22.214C60.0131 22.406 59.7371 22.676 59.5451 23.024C59.3531 23.372 59.2571 23.786 59.2571 24.266V29H56.6831ZM69.6288 29.18C68.4288 29.18 67.3788 28.928 66.4788 28.424C65.5908 27.908 64.9008 27.164 64.4088 26.192C63.9168 25.22 63.6708 24.056 63.6708 22.7C63.6708 21.344 63.9168 20.18 64.4088 19.208C64.9008 18.236 65.5908 17.498 66.4788 16.994C67.3788 16.478 68.4288 16.22 69.6288 16.22C71.1528 16.22 72.3708 16.598 73.2828 17.354C74.1948 18.098 74.8128 19.112 75.1368 20.396H72.2748C72.0228 19.856 71.6928 19.442 71.2848 19.154C70.8888 18.866 70.3368 18.722 69.6288 18.722C68.9928 18.722 68.4348 18.872 67.9548 19.172C67.4868 19.472 67.1148 19.922 66.8388 20.522C66.5748 21.122 66.4428 21.848 66.4428 22.7C66.4428 23.552 66.5748 24.278 66.8388 24.878C67.1148 25.478 67.4868 25.928 67.9548 26.228C68.4348 26.528 68.9928 26.678 69.6288 26.678C70.3368 26.678 70.8888 26.534 71.2848 26.246C71.6928 25.958 72.0228 25.544 72.2748 25.004H75.1368C74.8128 26.288 74.1948 27.308 73.2828 28.064C72.3708 28.808 71.1528 29.18 69.6288 29.18ZM80.4608 29.18C79.4888 29.18 78.6488 28.988 77.9408 28.604C77.2448 28.208 76.7048 27.644 76.3208 26.912C75.9488 26.168 75.7628 25.274 75.7628 24.23C75.7628 23.174 75.9488 22.28 76.3208 21.548C76.7048 20.804 77.2448 20.24 77.9408 19.856C78.6488 19.46 79.4888 19.262 80.4608 19.262C81.4208 19.262 82.2548 19.46 82.9628 19.856C83.6708 20.24 84.2108 20.804 84.5828 21.548C84.9668 22.28 85.1588 23.174 85.1588 24.23C85.1588 25.274 84.9668 26.168 84.5828 26.912C84.2108 27.644 83.6708 28.208 82.9628 28.604C82.2548 28.988 81.4208 29.18 80.4608 29.18ZM80.4608 26.876C80.8568 26.876 81.2108 26.786 81.5228 26.606C81.8468 26.414 82.1048 26.12 82.2968 25.724C82.4888 25.316 82.5848 24.818 82.5848 24.23C82.5848 23.63 82.4888 23.132 82.2968 22.736C82.1048 22.34 81.8468 22.046 81.5228 21.854C81.2108 21.662 80.8568 21.566 80.4608 21.566C80.0528 21.566 79.6868 21.662 79.3628 21.854C79.0508 22.046 78.7988 22.34 78.6068 22.736C78.4268 23.132 78.3368 23.63 78.3368 24.23C78.3368 24.818 78.4268 25.316 78.6068 25.724C78.7988 26.12 79.0508 26.414 79.3628 26.606C79.6868 26.786 80.0528 26.876 80.4608 26.876ZM86.8472 29V19.442H89.0612L89.3312 20.504H89.4212C89.7452 20.108 90.1232 19.802 90.5552 19.586C90.9872 19.37 91.4552 19.262 91.9592 19.262C92.6432 19.262 93.2492 19.418 93.7772 19.73C94.3052 20.03 94.7132 20.474 95.0012 21.062C95.3012 21.638 95.4512 22.328 95.4512 23.132V29H92.8772V23.51C92.8772 23.102 92.8112 22.754 92.6792 22.466C92.5472 22.178 92.3552 21.956 92.1032 21.8C91.8512 21.644 91.5512 21.566 91.2032 21.566C90.8432 21.566 90.5312 21.65 90.2672 21.818C90.0032 21.974 89.7932 22.202 89.6372 22.502C89.4932 22.79 89.4212 23.126 89.4212 23.51V29H86.8472ZM99.4858 29L96.1738 19.442H98.9278L101.088 26.444H101.178L103.32 19.442H106.02L102.708 29H99.4858ZM111.082 29.18C110.11 29.18 109.27 28.988 108.562 28.604C107.866 28.208 107.326 27.644 106.942 26.912C106.57 26.168 106.384 25.274 106.384 24.23C106.384 23.174 106.57 22.28 106.942 21.548C107.326 20.804 107.872 20.24 108.58 19.856C109.288 19.46 110.122 19.262 111.082 19.262C112.006 19.262 112.816 19.466 113.512 19.874C114.22 20.282 114.76 20.852 115.132 21.584C115.504 22.304 115.69 23.126 115.69 24.05C115.69 24.23 115.678 24.41 115.654 24.59C115.642 24.77 115.624 24.92 115.6 25.04H108.202V23.24H113.188C113.128 22.94 113.014 22.652 112.846 22.376C112.678 22.1 112.444 21.878 112.144 21.71C111.844 21.542 111.49 21.458 111.082 21.458C110.65 21.458 110.272 21.56 109.948 21.764C109.624 21.968 109.372 22.262 109.192 22.646C109.024 23.018 108.94 23.462 108.94 23.978C108.94 24.614 109.012 25.16 109.156 25.616C109.3 26.06 109.528 26.402 109.84 26.642C110.152 26.87 110.56 26.984 111.064 26.984C111.532 26.984 111.886 26.906 112.126 26.75C112.366 26.582 112.582 26.336 112.774 26.012H115.51C115.354 26.588 115.096 27.116 114.736 27.596C114.388 28.064 113.908 28.448 113.296 28.748C112.684 29.036 111.946 29.18 111.082 29.18ZM117.38 29V19.442H119.594L119.864 20.504H119.954C120.206 20.132 120.524 19.862 120.908 19.694C121.304 19.526 121.736 19.442 122.204 19.442H123.392V21.926H122.384C121.88 21.926 121.442 22.022 121.07 22.214C120.71 22.406 120.434 22.676 120.242 23.024C120.05 23.372 119.954 23.786 119.954 24.266V29H117.38ZM128.562 29C127.89 29 127.332 28.892 126.888 28.676C126.444 28.46 126.108 28.148 125.88 27.74C125.664 27.32 125.556 26.804 125.556 26.192V21.836H124.026V19.442H125.556L125.934 16.922H128.13V19.442H130.38V21.836H128.13V25.724C128.13 25.988 128.214 26.204 128.382 26.372C128.55 26.54 128.76 26.624 129.012 26.624H130.38V29H128.562Z" fill="white"/>
</g>
<defs>
<clipPath id="clip0_32_2">
<rect width="132" height="44" fill="white"/>
</clipPath>
</defs>
</svg>
